<svg height="480pt" viewBox="0 0 480 480" width="480pt" xmlns="http://www.w3.org/2000/svg"><path d="m240 432c-20.113281.007812-39.710938-6.339844-56-18.136719v58.136719h112v-58.136719c-16.289062 11.796875-35.886719 18.144531-56 18.136719zm0 0" fill="#79bd9a"/><path d="m332.855469 216c-10.902344-42.371094-49.105469-71.988281-92.855469-71.988281s-81.953125 29.617187-92.855469 71.988281zm0 0" fill="#a8dba8"/><path d="m288 344-48-24-48 24-48-9.601562v1.601562c0 53.019531 42.980469 96 96 96s96-42.980469 96-96v-1.601562zm0 0" fill="#a8dba8"/><path d="m280 184h144c8.835938 0 16-7.164062 16-16v-104c0-8.835938-7.164062-16-16-16h-48l-24 16-24-16h-48c-8.835938 0-16 7.164062-16 16v104c0 8.835938 7.164062 16 16 16zm0 0" fill="#cff09e"/><path d="m96 128c-23.964844-.007812-46.355469-11.933594-59.726562-31.820312-13.375-19.882813-15.976563-45.121094-6.945313-67.316407-20.78125 20.554688-27.074219 51.636719-15.925781 78.65625 11.152344 27.023438 37.535156 44.621094 66.765625 44.535157 29.230469-.085938 55.507812-17.835938 66.503906-44.917969-13.46875 13.382812-31.6875 20.882812-50.671875 20.863281zm0 0" fill="#cff09e"/><path d="m354.953125 306.609375-61.5625 12.3125c-3.492187.699219-7.121094.214844-10.3125-1.378906l-43.078125-21.542969-43.078125 21.542969c-3.191406 1.59375-6.820313 2.078125-10.3125 1.378906l-50.609375-10.121094v-92.800781h-24v104h.910156c1.875 5.441406 6.496094 9.476562 12.136719 10.609375l66.953125 13.390625 48-24 48 24 66.953125-13.390625c7.585937-1.519531 13.046875-8.183594 13.046875-15.921875v-24c0 7.738281-5.460938 14.402344-13.046875 15.921875zm0 0" fill="#cff09e"/><g fill="#3b8686"><path d="m351.769531 208h-13.015625c-1.785156-5.511719-4.03125-10.863281-6.714844-16h91.960938c13.253906 0 24-10.746094 24-24v-104c0-13.253906-10.746094-24-24-24h-48c-1.578125.003906-3.125.46875-4.441406 1.34375l-19.558594 13.054688-19.558594-13.039063c-1.316406-.878906-2.859375-1.351563-4.441406-1.359375h-48c-13.253906 0-24 10.746094-24 24v73.367188c-50.425781-7.957032-99.125 22.027343-114.726562 70.632812h-13.042969c-13.375.019531-24.210938 10.855469-24.230469 24.230469v82.457031c.023438 11.546875 8.164062 21.480469 19.480469 23.769531l12.800781 2.550781c1.425781 30.328126 15.910156 58.550782 39.71875 77.390626v53.601562c0 4.417969 3.582031 8 8 8h112c4.417969 0 8-3.582031 8-8v-54.039062l.257812-.183594c23.722657-18.605469 38.136719-46.644532 39.460938-76.761719l12.800781-2.558594c11.3125-2.292969 19.457031-12.226562 19.480469-23.769531v-82.457031c-.019531-13.375-10.855469-24.210938-24.230469-24.230469zm26.628907-152h45.601562c4.417969 0 8 3.582031 8 8v104c0 4.417969-3.582031 8-8 8h-64v-107.71875zm-106.398438 8c0-4.417969 3.582031-8 8-8h45.601562l18.398438 12.28125v107.71875h-64c-4.417969 0-8-3.582031-8-8zm-16 89.65625v14.34375c0 13.253906 10.746094 24 24 24h33.601562c3.308594 5.03125 6.085938 10.394531 8.285157 16h-163.71875c15.152343-39.410156 56.363281-62.304688 97.832031-54.34375zm32 310.34375h-96v-35.414062c7.027344 3.628906 14.460938 6.410156 22.144531 8.285156 8.417969 2.0625 17.050781 3.113281 25.71875 3.128906 16.761719 0 33.273438-4.042969 48.136719-11.792969zm6.398438-58.800781c-21.628907 16.890625-49.851563 22.839843-76.460938 16.121093-10.101562-2.484374-19.636719-6.863281-28.105469-12.894531-.714843-.773437-1.578125-1.394531-2.535156-1.832031-19.660156-15.125-32.230469-37.667969-34.761719-62.335938l37.929688 7.582032c1.742187.351562 3.550781.113281 5.144531-.679688l44.390625-22.214844 44.425781 22.253907c1.113281.539062 2.335938.8125 3.574219.800781.539062.003906 1.074219-.050781 1.601562-.160156l37.964844-7.59375c-2.175781 24.023437-14.179687 46.078125-33.167968 60.953125zm65.601562-90.511719c-.003906 3.921875-2.769531 7.300781-6.617188 8.082031l-64.253906 12.847657-45.554687-22.777344c-2.25-1.125-4.898438-1.125-7.148438 0l-45.554687 22.777344-44.613282-8.921876-19.632812-3.917968c-3.851562-.777344-6.621094-4.160156-6.625-8.089844v-82.457031c.007812-4.542969 3.6875-8.222657 8.230469-8.230469h223.539062c4.542969.007812 8.222657 3.6875 8.230469 8.230469zm0 0"/><path d="m192 240h-40c-8.835938 0-16 7.164062-16 16v16c0 4.417969 3.582031 8 8 8s8-3.582031 8-8v-16h40c4.417969 0 8-3.582031 8-8s-3.582031-8-8-8zm0 0"/><path d="m336 240h-32c-4.417969 0-8 3.582031-8 8s3.582031 8 8 8h32c4.417969 0 8-3.582031 8-8s-3.582031-8-8-8zm0 0"/><path d="m275.574219 296.800781-32-16c-2.25-1.125-4.898438-1.125-7.148438 0l-32 16c-3.957031 1.972657-5.5625 6.78125-3.585937 10.734375 1.976562 3.957032 6.78125 5.558594 10.734375 3.585938l28.425781-14.175782 28.425781 14.253907c3.953125 1.976562 8.757813.371093 10.734375-3.582031 1.976563-3.957032.371094-8.761719-3.585937-10.738282zm0 0"/><path d="m264 376h-48c-4.417969 0-8 3.582031-8 8s3.582031 8 8 8h48c4.417969 0 8-3.582031 8-8s-3.582031-8-8-8zm0 0"/><path d="m80 264c-35.328125-.039062-63.960938-28.671875-64-64v-16c0-4.417969-3.582031-8-8-8s-8 3.582031-8 8v16c.046875 44.164062 35.835938 79.953125 80 80 4.417969 0 8-3.582031 8-8s-3.582031-8-8-8zm0 0"/><path d="m472 176c-4.417969 0-8 3.582031-8 8v16c-.039062 35.328125-28.671875 63.960938-64 64-4.417969 0-8 3.582031-8 8s3.582031 8 8 8c44.164062-.046875 79.953125-35.835938 80-80v-16c0-4.417969-3.582031-8-8-8zm0 0"/><path d="m296 96h16c4.417969 0 8-3.582031 8-8s-3.582031-8-8-8h-16c-4.417969 0-8 3.582031-8 8s3.582031 8 8 8zm0 0"/><path d="m296 128h16c4.417969 0 8-3.582031 8-8s-3.582031-8-8-8h-16c-4.417969 0-8 3.582031-8 8s3.582031 8 8 8zm0 0"/><path d="m296 160h16c4.417969 0 8-3.582031 8-8s-3.582031-8-8-8h-16c-4.417969 0-8 3.582031-8 8s3.582031 8 8 8zm0 0"/><path d="m392 96h16c4.417969 0 8-3.582031 8-8s-3.582031-8-8-8h-16c-4.417969 0-8 3.582031-8 8s3.582031 8 8 8zm0 0"/><path d="m392 128h16c4.417969 0 8-3.582031 8-8s-3.582031-8-8-8h-16c-4.417969 0-8 3.582031-8 8s3.582031 8 8 8zm0 0"/><path d="m392 160h16c4.417969 0 8-3.582031 8-8s-3.582031-8-8-8h-16c-4.417969 0-8 3.582031-8 8s3.582031 8 8 8zm0 0"/><path d="m192 80h32c4.417969 0 8-3.582031 8-8s-3.582031-8-8-8h-32c-4.417969 0-8 3.582031-8 8s3.582031 8 8 8zm0 0"/><path d="m80 160c44.183594 0 80-35.816406 80-80s-35.816406-80-80-80-80 35.816406-80 80c.046875 44.164062 35.835938 79.953125 80 80zm-63.449219-72h23.640625c.367188 17.011719 4.222656 33.769531 11.328125 49.230469-19.140625-9.546875-32.257812-28.011719-34.96875-49.230469zm63.449219-72c9.105469 0 22.007812 21.601562 23.777344 56h-47.554688c1.769532-34.398438 14.671875-56 23.777344-56zm23.777344 72c-1.769532 34.398438-14.671875 56-23.777344 56s-22.007812-21.601562-23.777344-56zm4.703125 49.230469c7.105469-15.460938 10.960937-32.21875 11.328125-49.230469h23.640625c-2.710938 21.21875-15.828125 39.683594-34.96875 49.230469zm34.96875-65.230469h-23.640625c-.367188-17.011719-4.222656-33.769531-11.328125-49.230469 19.140625 9.546875 32.257812 28.011719 34.96875 49.230469zm-91.929688-49.230469c-7.105469 15.460938-10.960937 32.21875-11.328125 49.230469h-23.640625c2.710938-21.21875 15.828125-39.683594 34.96875-49.230469zm0 0"/></g></svg>