<?xml version="1.0" encoding="iso-8859-1"?>
<!-- Generator: Adobe Illustrator 19.0.0, SVG Export Plug-In . SVG Version: 6.00 Build 0)  -->
<svg version="1.1" id="Capa_1" xmlns="http://www.w3.org/2000/svg" xmlns:xlink="http://www.w3.org/1999/xlink" x="0px" y="0px"
	 viewBox="0 0 512 512" style="enable-background:new 0 0 512 512;" xml:space="preserve">
<g>
	<g>
		<path style="fill:#3F5C6C;" d="M344.276,63.62h88.276c9.746,0.011,17.644,7.909,17.655,17.655v49.31l-11.414-11.414
			c-3.453-3.41-9.012-3.392-12.443,0.039c-3.432,3.432-3.449,8.99-0.039,12.443l23.896,23.897v49.31
			c0,4.875,3.952,8.828,8.828,8.828s8.828-3.952,8.828-8.828v-49.31l23.896-23.896c2.253-2.225,3.142-5.487,2.329-8.547
			c-0.813-3.061-3.203-5.451-6.264-6.264c-3.06-0.813-6.322,0.075-8.547,2.328l-11.414,11.414v-49.31
			c-0.021-19.493-15.818-35.29-35.31-35.31h-88.276c-4.875,0-8.828,3.952-8.828,8.828S339.401,63.62,344.276,63.62z"/>
		<path style="fill:#3F5C6C;" d="M238.345,452.034H79.448c-9.746-0.011-17.644-7.909-17.655-17.655v-49.31l11.414,11.414
			c2.225,2.253,5.487,3.142,8.547,2.328c3.06-0.813,5.451-3.204,6.264-6.264c0.813-3.061-0.076-6.322-2.329-8.547l-23.896-23.897
			v-49.31c0-4.875-3.952-8.828-8.828-8.828s-8.828,3.952-8.828,8.828v49.31l-23.896,23.897c-3.394,3.456-3.369,9.001,0.056,12.426
			c3.425,3.425,8.97,3.45,12.426,0.056l11.414-11.414v49.31c0.021,19.493,15.818,35.29,35.31,35.31h158.897
			c4.875,0,8.828-3.952,8.828-8.828S243.22,452.034,238.345,452.034z"/>
		<path style="fill:#3F5C6C;" d="M32.724,158.137l11.414-11.414v58.138c0,4.875,3.952,8.828,8.828,8.828s8.828-3.952,8.828-8.828
			v-58.138l11.414,11.414c3.453,3.41,9.012,3.392,12.443-0.039c3.432-3.432,3.449-8.99,0.039-12.443l-23.896-23.897V81.275
			c0.011-9.746,7.909-17.644,17.655-17.655h88.276c4.875,0,8.828-3.952,8.828-8.828s-3.952-8.828-8.828-8.828H79.448
			c-19.493,0.021-35.29,15.818-35.31,35.31v40.483l-23.896,23.897c-3.394,3.456-3.369,9.001,0.056,12.426
			C23.723,161.505,29.268,161.531,32.724,158.137z"/>
		<path style="fill:#3F5C6C;" d="M479.276,357.517l-11.414,11.414v-58.138c0-4.875-3.952-8.828-8.828-8.828
			s-8.828,3.952-8.828,8.828v58.138l-11.414-11.414c-3.453-3.41-9.012-3.392-12.443,0.039c-3.432,3.432-3.449,8.99-0.039,12.443
			l23.896,23.897v40.483c-0.011,9.746-7.909,17.644-17.655,17.655H273.655c-4.875,0-8.828,3.952-8.828,8.828
			s3.952,8.828,8.828,8.828h158.897c19.493-0.021,35.29-15.818,35.31-35.31v-40.483l23.896-23.896
			c3.41-3.453,3.393-9.012-0.039-12.443S482.729,354.107,479.276,357.517z"/>
	</g>
	<polygon style="fill:#FDD7AD;" points="211.986,351.337 150.113,363.714 162.489,301.841 185.379,293.137 220.69,328.447 	"/>
	
		<rect x="276.027" y="180.757" transform="matrix(0.7071 0.7071 -0.7071 0.7071 234.5488 -160.5108)" style="fill:#BDC3C7;" width="70.003" height="44.226"/>
	<path style="fill:#CC4B4C;" d="M176.552,1.827h158.897c4.875,0,8.828,3.952,8.828,8.828V98.93c0,4.875-3.952,8.828-8.828,8.828
		H176.552c-4.875,0-8.828-3.952-8.828-8.828V10.654C167.724,5.779,171.676,1.827,176.552,1.827z"/>
	<circle style="fill:#71C285;" cx="52.966" cy="257.827" r="52.966"/>
	<circle style="fill:#4482C3;" cx="459.034" cy="257.827" r="52.966"/>
	<g>
		<path style="fill:#F0C419;" d="M209.236,454.624l40.48-40.48c3.447-3.447,9.037-3.447,12.484,0l40.48,40.48
			c3.447,3.447,3.447,9.037,0,12.484l-40.48,40.48c-3.447,3.447-9.037,3.447-12.484,0l-40.48-40.48
			C205.788,463.661,205.788,458.071,209.236,454.624z"/>
		<polygon style="fill:#F0C419;" points="323.354,239.995 211.95,351.311 193.501,332.861 180.966,320.326 162.516,301.876 
			273.832,190.472 		"/>
	</g>
	<path style="fill:#CC4B4C;" d="M348.104,215.215l-49.497-49.497l6.022-6.022c10.342-10.342,27.11-10.342,37.452,0l12.044,12.044
		c10.342,10.342,10.342,27.11,0,37.452L348.104,215.215z"/>
	<polygon style="fill:#F29C1F;" points="304.817,221.457 193.501,332.861 180.966,320.326 292.37,209.01 	"/>
</g>
<g>
</g>
<g>
</g>
<g>
</g>
<g>
</g>
<g>
</g>
<g>
</g>
<g>
</g>
<g>
</g>
<g>
</g>
<g>
</g>
<g>
</g>
<g>
</g>
<g>
</g>
<g>
</g>
<g>
</g>
</svg>
