<?xml version="1.0" encoding="iso-8859-1"?>
<!-- Generator: Adobe Illustrator 19.0.0, SVG Export Plug-In . SVG Version: 6.00 Build 0)  -->
<svg version="1.1" id="Capa_1" xmlns="http://www.w3.org/2000/svg" xmlns:xlink="http://www.w3.org/1999/xlink" x="0px" y="0px"
	 viewBox="0 0 479.993 479.993" style="enable-background:new 0 0 479.993 479.993;" xml:space="preserve">
<path style="fill:#95C9FC;" d="M71.238,243.418c39.344,0,72.762,30.445,72.762,68v40l32,48h-32v32H80v48H0v-168
	C0.915,272.978,32.797,242.545,71.238,243.418z"/>
<g>
	<path style="fill:#FFD700;" d="M264,159.418c-4.625,0.001-9.241-0.396-13.797-1.188l2.75-15.766
		c7.352,1.268,14.868,1.263,22.219-0.016l2.781,15.75C273.347,159.013,268.678,159.42,264,159.418L264,159.418z M224.078,148.762
		c-8.077-4.657-15.278-10.687-21.281-17.82l12.234-10.312c4.807,5.715,10.576,10.546,17.047,14.273L224.078,148.762z
		 M304.047,148.684l-8.016-13.844c6.46-3.74,12.218-8.578,17.016-14.297l12.25,10.281
		C319.309,137.972,312.118,144.016,304.047,148.684L304.047,148.684z M188.859,106.926c-3.213-8.756-4.857-18.009-4.859-27.336
		l16-0.031c0.005,7.459,1.316,14.86,3.875,21.867L188.859,106.926z M339.203,106.77l-15.031-5.469
		c2.542-7.015,3.838-14.421,3.828-21.883l14.383-0.266l1.609,0.008C344.034,88.574,342.413,97.921,339.203,106.77L339.203,106.77z
		 M203.789,57.653l-15.047-5.438c3.172-8.778,7.86-16.93,13.852-24.086l12.281,10.266C210.078,44.114,206.325,50.633,203.789,57.653
		z M324.086,57.301c-2.578-7.005-6.368-13.502-11.195-19.195l12.219-10.328c6.028,7.114,10.764,15.229,13.992,23.976L324.086,57.301
		z M231.859,24.059l-8.047-13.828c8.062-4.699,16.89-7.939,26.078-9.57l2.812,15.75C245.36,17.715,238.304,20.304,231.859,24.059
		L231.859,24.059z M295.812,23.864c-6.464-3.717-13.533-6.264-20.883-7.523l2.703-15.766c9.203,1.572,18.055,4.759,26.148,9.414
		L295.812,23.864z"/>
	<path style="fill:#FFD700;" d="M400,479.418c-4.625,0.001-9.241-0.396-13.797-1.188l2.75-15.766
		c7.352,1.276,14.869,1.271,22.219-0.016l2.781,15.75C409.347,479.012,404.678,479.42,400,479.418z M360.078,468.762
		c-8.077-4.657-15.278-10.687-21.281-17.82l12.234-10.312c4.807,5.715,10.576,10.546,17.047,14.273L360.078,468.762z
		 M440.047,468.684l-8.016-13.844c6.46-3.74,12.218-8.578,17.016-14.297l12.25,10.281
		C455.309,457.972,448.118,464.016,440.047,468.684L440.047,468.684z M324.859,426.926c-3.213-8.756-4.857-18.009-4.859-27.336
		l16-0.031c0.005,7.459,1.316,14.86,3.875,21.867L324.859,426.926z M475.203,426.77l-15.031-5.469
		c2.542-7.015,3.838-14.421,3.828-21.883l14.383-0.266l1.609,0.008C480.034,408.574,478.413,417.921,475.203,426.77L475.203,426.77z
		 M339.789,377.653l-15.047-5.438c3.172-8.778,7.86-16.93,13.852-24.086l12.281,10.266
		C346.078,364.114,342.325,370.633,339.789,377.653z M460.086,377.301c-2.578-7.005-6.368-13.502-11.195-19.195l12.219-10.328
		c6.028,7.114,10.764,15.229,13.992,23.977L460.086,377.301z M367.859,344.059l-8.047-13.828c8.062-4.699,16.89-7.939,26.078-9.57
		l2.812,15.75C381.36,337.715,374.304,340.304,367.859,344.059z M431.812,343.864c-6.464-3.717-13.533-6.264-20.883-7.523
		l2.703-15.766c9.203,1.572,18.055,4.759,26.148,9.414L431.812,343.864z"/>
	<path style="fill:#FFD700;" d="M400,287.418c-4.625,0.001-9.241-0.396-13.797-1.188l2.75-15.766
		c7.352,1.268,14.868,1.263,22.219-0.016l2.781,15.75C409.347,287.012,404.678,287.42,400,287.418z M360.078,276.762
		c-8.077-4.657-15.278-10.687-21.281-17.82l12.234-10.312c4.807,5.715,10.576,10.546,17.047,14.273L360.078,276.762z
		 M440.047,276.684l-8.016-13.844c6.46-3.74,12.218-8.578,17.016-14.297l12.25,10.281
		C455.309,265.972,448.118,272.016,440.047,276.684L440.047,276.684z M324.859,234.926c-3.213-8.756-4.857-18.009-4.859-27.336
		l16-0.031c0.005,7.459,1.316,14.86,3.875,21.867L324.859,234.926z M475.203,234.77l-15.031-5.469
		c2.542-7.015,3.838-14.421,3.828-21.883l14.383-0.266l1.609,0.008C480.034,216.574,478.413,225.921,475.203,234.77L475.203,234.77z
		 M339.789,185.653l-15.047-5.438c3.172-8.778,7.86-16.93,13.852-24.086l12.281,10.266
		C346.078,172.114,342.325,178.633,339.789,185.653z M460.086,185.301c-2.578-7.005-6.368-13.502-11.195-19.195l12.219-10.328
		c6.028,7.114,10.764,15.229,13.992,23.977L460.086,185.301z M367.859,152.059l-8.047-13.828c8.062-4.699,16.89-7.939,26.078-9.57
		l2.812,15.75C381.36,145.715,374.304,148.304,367.859,152.059L367.859,152.059z M431.812,151.864
		c-6.464-3.717-13.533-6.264-20.883-7.523l2.703-15.766c9.203,1.572,18.055,4.759,26.148,9.414L431.812,151.864z"/>
</g>
<path style="fill:#5498FC;" d="M79.249,243.872c-2.66-0.292-5.334-0.444-8.011-0.454h-0.001c-38.441-0.873-70.323,29.56-71.238,68
	v168h16v-168C16.727,276.049,44.004,246.919,79.249,243.872z"/>
<path style="fill:#919190;" d="M88,327.418h40v16H88V327.418z"/>
<path style="fill:#FCCC38;" d="M80,263.418c-26.51,0-48,21.49-48,48h96C128,284.909,106.51,263.418,80,263.418z"/>
<path style="fill:#F4393D;" d="M264,35.418l9.44,30.56H304l-24.72,18.88l9.44,30.56L264,96.53l-24.72,18.888l9.44-30.56L224,65.978
	h30.56L264,35.418z"/>
<circle style="fill:#24DB6A;" cx="400" cy="399.418" r="40"/>
<path style="fill:#17AFDC;" d="M368,175.418h64v64h-64V175.418z"/>
<g>
	<path style="fill:#F4393D;" d="M164.117,72.559l-40-24c-3.787-2.274-8.701-1.048-10.976,2.739c-0.747,1.244-1.142,2.669-1.142,4.12
		v16H64c-4.416-0.003-7.997,3.575-8,7.991c0,0.003,0,0.006,0,0.009v136h16v-128h40v16c0,4.418,3.582,8,8,8
		c1.45,0,2.874-0.394,4.117-1.141l40-24c3.788-2.274,5.016-7.188,2.742-10.976C166.184,74.176,165.242,73.234,164.117,72.559z"/>
	<path style="fill:#F4393D;" d="M300.117,400.559l-40-24c-3.787-2.274-8.701-1.048-10.976,2.739
		c-0.747,1.244-1.142,2.669-1.142,4.12v16h-24v-112c0.003-4.416-3.575-7.997-7.991-8c-0.003,0-0.006,0-0.009,0h-40v16h32v112
		c-0.003,4.416,3.575,7.997,7.991,8c0.003,0,0.006,0,0.009,0h32v16c0,4.418,3.582,8,8,8c1.45,0,2.874-0.394,4.117-1.141l40-24
		c3.788-2.274,5.016-7.188,2.742-10.976C302.184,402.176,301.242,401.234,300.117,400.559L300.117,400.559z"/>
	<path style="fill:#F4393D;" d="M300.117,208.559l-40-24c-3.787-2.274-8.701-1.048-10.976,2.739
		c-0.747,1.244-1.142,2.669-1.142,4.12v16h-72c-4.416-0.003-7.997,3.575-8,7.991c0,0.003,0,0.006,0,0.009v24h-16v16h24
		c4.416,0.003,7.997-3.575,8-7.991c0-0.003,0-0.006,0-0.009v-24h64v16c0,4.418,3.582,8,8,8c1.45,0,2.874-0.394,4.117-1.141l40-24
		c3.788-2.274,5.016-7.188,2.742-10.976C302.184,210.176,301.242,209.234,300.117,208.559L300.117,208.559z"/>
</g>
<g>
</g>
<g>
</g>
<g>
</g>
<g>
</g>
<g>
</g>
<g>
</g>
<g>
</g>
<g>
</g>
<g>
</g>
<g>
</g>
<g>
</g>
<g>
</g>
<g>
</g>
<g>
</g>
<g>
</g>
</svg>
