<svg height="512pt" viewBox="-50 0 512 512" width="512pt" xmlns="http://www.w3.org/2000/svg"><path d="m121.121094 323.492188c18.085937 13.195312 28.46875 34.5 28.46875 56.886718v18.140625h113.652344v-13.738281c0-24.78125 11.453124-48.21875 31.136718-63.285156 34.578125-26.46875 56.882813-68.167969 56.882813-115.078125 0-79.585938-64.179688-144.175781-143.605469-144.839844-80.128906-.671875-146.085938 64.707031-146.085938 144.839844 0 48.105469 23.453126 90.730469 59.550782 117.074219zm0 0" fill="#ffc964"/><path d="m141.414062 323.488281c-36.097656-26.339843-59.550781-68.964843-59.550781-117.074219 0-76.296874 59.792969-139.214843 134.683594-144.484374-2.945313-.203126-5.90625-.332032-8.894531-.355469-80.128906-.671875-146.082032 64.710937-146.082032 144.839843 0 48.109376 23.453126 90.734376 59.550782 117.074219 18.085937 13.199219 28.46875 34.503907 28.46875 56.890625v18.136719h20.292968v-18.136719c0-22.386718-10.382812-43.691406-28.46875-56.890625zm0 0" fill="#f3a334"/><g fill="#ffc964"><path d="m405.222656 214.023438h-23.945312c-4.203125 0-7.609375-3.40625-7.609375-7.609376 0-4.203124 3.40625-7.609374 7.609375-7.609374h23.945312c4.199219 0 7.609375 3.40625 7.609375 7.609374 0 4.203126-3.410156 7.609376-7.609375 7.609376zm0 0"/><path d="m31.554688 214.023438h-23.945313c-4.203125 0-7.609375-3.40625-7.609375-7.609376 0-4.203124 3.40625-7.609374 7.609375-7.609374h23.945313c4.199218 0 7.609374 3.40625 7.609374 7.609374 0 4.203126-3.410156 7.609376-7.609374 7.609376zm0 0"/><path d="m351.261719 122.789062c-2.101563-3.640624-.855469-8.292968 2.785156-10.394531l20.734375-11.972656c3.640625-2.101563 8.292969-.855469 10.394531 2.785156 2.101563 3.640625.855469 8.292969-2.785156 10.394531l-20.734375 11.972657c-3.636719 2.097656-8.292969.859375-10.394531-2.785157zm0 0"/><path d="m27.65625 309.621094c-2.105469-3.640625-.855469-8.292969 2.785156-10.394532l20.734375-11.972656c3.640625-2.097656 8.292969-.851562 10.394531 2.789063 2.101563 3.636719.855469 8.292969-2.785156 10.394531l-20.734375 11.96875c-3.640625 2.101562-8.292969.855469-10.394531-2.785156zm0 0"/><path d="m290.042969 61.570312c-3.640625-2.101562-4.890625-6.757812-2.789063-10.394531l11.972656-20.734375c2.101563-3.640625 6.753907-4.890625 10.394532-2.785156 3.640625 2.101562 4.886718 6.753906 2.785156 10.394531l-11.96875 20.734375c-2.101562 3.636719-6.753906 4.886719-10.394531 2.785156zm0 0"/><path d="m206.417969 39.164062c-4.203125 0-7.613281-3.410156-7.613281-7.613281v-23.941406c0-4.203125 3.410156-7.609375 7.613281-7.609375 4.199219 0 7.609375 3.40625 7.609375 7.609375v23.941406c-.003906 4.203125-3.410156 7.613281-7.609375 7.613281zm0 0"/><path d="m112.394531 58.785156-11.972656-20.734375c-2.101563-3.640625-.855469-8.296875 2.785156-10.394531 3.640625-2.101562 8.296875-.855469 10.398438 2.785156l11.96875 20.734375c2.101562 3.636719.855469 8.292969-2.785157 10.394531-3.640624 2.101563-8.292968.851563-10.394531-2.785156zm0 0"/><path d="m51.175781 125.574219-20.734375-11.972657c-3.640625-2.101562-4.890625-6.753906-2.785156-10.394531 2.101562-3.640625 6.753906-4.886719 10.394531-2.785156l20.734375 11.972656c3.640625 2.101563 4.886719 6.753907 2.785156 10.394531-2.101562 3.640626-6.753906 4.886719-10.394531 2.785157zm0 0"/><path d="m374.78125 312.40625-20.734375-11.96875c-3.640625-2.101562-4.890625-6.757812-2.789063-10.394531 2.101563-3.644531 6.757813-4.886719 10.398438-2.789063l20.734375 11.972656c3.640625 2.101563 4.886719 6.757813 2.785156 10.394532-2.101562 3.640625-6.753906 4.886718-10.394531 2.785156zm0 0"/></g><path d="m177.496094 477.984375c4.160156 19.800781 15.53125 34.015625 28.921875 34.015625 13.386719 0 24.757812-14.214844 28.917969-34.015625zm0 0" fill="#4b98d4"/><path d="m197.660156 477.984375h-20.164062c4.160156 19.800781 15.53125 34.015625 28.917968 34.015625 3.535157 0 6.925782-1 10.085938-2.820312-8.804688-5.082032-15.777344-16.621094-18.839844-31.195313zm0 0" fill="#2472b2"/><path d="m266.300781 393.445312h-119.769531c-4.828125 0-8.742188 3.914063-8.742188 8.742188v37.703125c0 22.914063 18.574219 41.492187 41.492188 41.492187h54.269531c22.917969 0 41.492188-18.578124 41.492188-41.492187v-37.703125c0-4.828125-3.914063-8.742188-8.742188-8.742188zm0 0" fill="#e4e3e1"/><path d="m158.082031 439.890625v-37.703125c0-4.828125 3.914063-8.742188 8.742188-8.742188h-20.292969c-4.828125 0-8.742188 3.914063-8.742188 8.742188v37.703125c0 22.914063 18.574219 41.492187 41.492188 41.492187h20.292969c-22.917969 0-41.492188-18.578124-41.492188-41.492187zm0 0" fill="#d1d0cf"/><path d="m137.789062 437.414062v2.476563c0 22.914063 18.574219 41.492187 41.492188 41.492187h54.269531c22.917969 0 41.492188-18.578124 41.492188-41.492187v-2.476563zm0 0" fill="#d1d0cf"/><path d="m158.082031 439.890625v-2.476563h-20.292969v2.476563c0 22.914063 18.574219 41.492187 41.492188 41.492187h20.292969c-22.917969 0-41.492188-18.578124-41.492188-41.492187zm0 0" fill="#c1c1c1"/><path d="m146.035156 208.613281c-1.214844-1.214843-1.214844-3.183593 0-4.398437l21.414063-21.410156c4.878906-4.878907 4.882812-12.785157 0-17.664063-4.871094-4.871094-12.792969-4.871094-17.664063 0l-32.441406 32.441406c-4.882812 4.878907-4.882812 12.785157 0 17.664063l32.441406 32.441406c4.886719 4.890625 12.789063 4.875 17.664063 0 4.878906-4.878906 4.882812-12.78125 0-17.660156zm0 0" fill="#525468"/><path d="m294.597656 197.582031-32.371094-32.371093c-4.871093-4.867188-12.792968-4.871094-17.664062 0-4.871094 4.871093-4.871094 12.796874 0 17.664062l20.511719 20.511719c1.671875 1.671875 1.671875 4.382812 0 6.054687l-20.511719 20.511719c-4.882812 4.878906-4.882812 12.785156 0 17.664063 4.878906 4.878906 12.785156 4.882812 17.664062 0l32.371094-32.371094c4.878906-4.878906 4.878906-12.78125 0-17.664063zm0 0" fill="#525468"/><path d="m229.328125 153.839844c-6.3125-2.75-13.6875.148437-16.441406 6.460937l-35.839844 82.25c-2.753906 6.324219.132813 13.679688 6.460937 16.4375 6.335938 2.761719 13.691407-.148437 16.441407-6.460937l35.839843-82.246094c2.75-6.3125-.148437-13.6875-6.460937-16.441406zm0 0" fill="#525468"/><path d="m137.636719 215.246094c-4.882813-4.878906-4.882813-12.785156 0-17.664063l31.019531-31.015625c-.367188-.496094-.761719-.976562-1.207031-1.425781-4.871094-4.871094-12.792969-4.871094-17.664063 0l-32.441406 32.441406c-4.882812 4.878907-4.882812 12.785157 0 17.664063l32.441406 32.441406c4.886719 4.890625 12.789063 4.875 17.664063 0 .445312-.445312.839843-.925781 1.207031-1.421875zm0 0" fill="#3e4151"/><path d="m264.855469 229.953125 20.511719-20.511719c1.671874-1.671875 1.671874-4.382812 0-6.054687l-20.511719-20.511719c-4.421875-4.421875-4.8125-11.355469-1.207031-16.238281l-1.421876-1.425781c-4.871093-4.867188-12.792968-4.871094-17.664062 0-4.871094 4.871093-4.871094 12.796874 0 17.664062l20.511719 20.511719c1.671875 1.671875 1.671875 4.382812 0 6.054687l-20.511719 20.511719c-4.882812 4.878906-4.882812 12.785156 0 17.664063 4.878906 4.878906 12.785156 4.882812 17.664062 0l1.421876-1.425782c-3.621094-4.886718-3.226563-11.804687 1.207031-16.238281zm0 0" fill="#3e4151"/><path d="m197.34375 242.550781 35.835938-82.25c.359374-.816406.796874-1.578125 1.296874-2.273437-1.269531-1.777344-3.007812-3.253906-5.148437-4.1875-6.3125-2.75-13.6875.148437-16.441406 6.460937l-35.839844 82.25c-2.753906 6.324219.132813 13.679688 6.460937 16.4375 5.511719 2.402344 11.789063.511719 15.144532-4.175781-2.476563-3.457031-3.132813-8.082031-1.308594-12.261719zm0 0" fill="#3e4151"/></svg>