<?xml version="1.0" encoding="iso-8859-1"?>
<!-- Generator: Adobe Illustrator 19.0.0, SVG Export Plug-In . SVG Version: 6.00 Build 0)  -->
<svg version="1.1" id="Capa_1" xmlns="http://www.w3.org/2000/svg" xmlns:xlink="http://www.w3.org/1999/xlink" x="0px" y="0px"
	 viewBox="0 0 512 512" style="enable-background:new 0 0 512 512;" xml:space="preserve">
<path style="fill:#F3E8D6;" d="M380.056,3.812H42.525c-5.524,0-10.003,4.478-10.003,10.003V318.78h446.956V103.2
	C446.351,70.17,399.528,23.442,380.056,3.812z"/>
<path style="fill:#E5D8C6;" d="M437.638,61.456V318.78h41.84V103.2C466.773,90.533,452.056,75.852,437.638,61.456z"/>
<path style="fill:#FFBF14;" d="M173.85,174.244H7.497c-4.141,0-7.497,3.357-7.497,7.497V500.69c0,4.141,3.357,7.497,7.497,7.497
	h497.005c4.141,0,7.497-3.357,7.497-7.497V236.928c0-4.141-3.357-7.497-7.497-7.497H245.081c-9.565,0-18.563-4.536-24.25-12.226
	L198.1,186.471C192.412,178.781,183.415,174.244,173.85,174.244z"/>
<g>
	<path style="fill:#EAA200;" d="M156.271,186.471l22.731,30.733c5.688,7.69,14.685,12.226,24.25,12.226h41.83
		c-9.565,0-18.562-4.537-24.25-12.226L198.1,186.471c-5.688-7.69-14.685-12.226-24.25-12.226h-41.83
		C141.585,174.244,150.583,178.781,156.271,186.471z"/>
	<path style="fill:#EAA200;" d="M504.503,229.43h-41.83c4.141,0,7.497,3.357,7.497,7.497V500.69c0,4.141-3.357,7.497-7.497,7.497
		h41.83c4.141,0,7.497-3.357,7.497-7.497V236.928C512,232.787,508.643,229.43,504.503,229.43z"/>
</g>
<path style="fill:#2D5872;" d="M425.729,430.99H86.271c-4.675,0-8.464-3.79-8.464-8.464V312.409c0-4.675,3.79-8.464,8.464-8.464
	H425.73c4.675,0,8.464,3.79,8.464,8.464v110.117C434.194,427.201,430.404,430.99,425.729,430.99z"/>
<path style="fill:#1D4859;" d="M425.729,303.945h-41.961c4.675,0,8.464,3.79,8.464,8.464v110.117c0,4.675-3.79,8.464-8.464,8.464
	h41.961c4.675,0,8.464-3.79,8.464-8.464V312.409C434.194,307.734,430.404,303.945,425.729,303.945z"/>
<g>
	<path style="fill:#FFFFFF;" d="M138.743,382.47c0.234-13.47-28.665-9.84-28.295-31.124c0.233-13.38,11.807-17.761,22.135-17.581
		c5.299,0.092,17.041,1.553,16.938,7.48c-0.036,2.066-1.544,6.172-4.778,6.116c-2.783-0.048-4.79-3.497-12.334-3.628
		c-6.466-0.112-10.193,2.428-10.268,6.739c-0.193,11.136,28.701,7.775,28.297,31.034c-0.223,12.843-9.319,19.331-21.712,19.117
		c-11.764-0.205-20.642-6.288-20.551-11.496c0.044-2.515,2.444-6.246,5.228-6.197c3.682,0.064,5.987,7.02,15.147,7.18
		C133.937,390.202,138.649,387.858,138.743,382.47z"/>
	<path style="fill:#FFFFFF;" d="M172.181,362.257l13.65,0.237c2.335,0.04,3.643,2.309,3.601,4.734
		c-0.036,2.066-1.245,4.47-3.76,4.426l-13.651-0.237l-0.313,18.05l25.414,0.442c2.335,0.04,3.64,2.488,3.591,5.272
		c-0.042,2.425-1.255,5.009-3.769,4.966l-31.971-0.556c-2.604-0.045-5.097-1.347-5.055-3.77l1.012-58.284
		c0.042-2.425,2.579-3.638,5.183-3.593l31.97,0.556c2.515,0.043,3.637,2.668,3.594,5.093c-0.048,2.784-1.437,5.186-3.772,5.144
		l-25.414-0.441L172.181,362.257z"/>
	<path style="fill:#FFFFFF;" d="M230.642,344.434c-6.017-0.104-9.487,3.159-9.609,10.164l-0.436,25.056
		c-0.122,7.005,3.233,10.386,9.43,10.494c8.172,0.142,8.992-5.683,9.327-9.449c0.228-2.781,2.758-3.635,5.812-3.583
		c4.041,0.071,5.906,1.271,5.827,5.85c-0.189,10.867-9.2,17.628-21.772,17.409c-11.315-0.197-20.558-5.927-20.298-20.924
		l0.435-25.056c0.261-14.997,9.787-20.401,21.102-20.205c12.483,0.217,21.258,7.017,21.077,17.435
		c-0.081,4.669-1.986,5.714-5.937,5.646c-3.323-0.057-5.73-1.087-5.773-3.784C239.696,350.699,239.173,344.581,230.642,344.434z"/>
	<path style="fill:#FFFFFF;" d="M261.424,337.416c0.033-1.885,1.589-3.566,3.834-3.526l17.781,0.309
		c11.764,0.205,21.206,4.86,20.958,19.139c-0.18,10.328-5.306,15.808-12.076,17.757l11.385,22.027
		c0.352,0.456,0.43,1.085,0.424,1.444c-0.051,2.964-3.968,6.04-7.381,5.98c-1.616-0.028-3.126-1.042-3.993-2.854l-12.322-25.008
		l-7.543-0.131l-0.407,23.44c-0.042,2.424-2.938,3.631-5.901,3.58c-2.874-0.049-5.816-1.359-5.773-3.783L261.424,337.416z
		 M272.983,344.266l-0.332,19.128l9.879,0.171c5.837,0.102,9.651-2.257,9.774-9.352c0.124-7.095-3.605-9.675-9.442-9.776
		L272.983,344.266z"/>
	<path style="fill:#FFFFFF;" d="M325.61,362.257l13.65,0.237c2.335,0.04,3.643,2.309,3.601,4.734
		c-0.036,2.066-1.245,4.47-3.76,4.426l-13.651-0.237l-0.313,18.05l25.414,0.442c2.335,0.04,3.64,2.488,3.591,5.272
		c-0.042,2.425-1.255,5.009-3.769,4.966l-31.971-0.556c-2.604-0.045-5.097-1.347-5.055-3.77l1.012-58.284
		c0.042-2.425,2.579-3.638,5.183-3.593l31.97,0.556c2.515,0.043,3.637,2.668,3.594,5.093c-0.048,2.784-1.437,5.186-3.772,5.144
		l-25.414-0.441L325.61,362.257z"/>
	<path style="fill:#FFFFFF;" d="M401.132,334.507c2.515,0.044,3.635,2.759,3.591,5.273c-0.048,2.784-1.439,5.274-3.774,5.234
		l-13.111-0.228l-0.894,51.458c-0.042,2.425-3.027,3.63-5.901,3.581c-2.964-0.051-5.816-1.359-5.774-3.784l0.894-51.458
		l-13.201-0.229c-2.335-0.04-3.64-2.488-3.59-5.362c0.043-2.515,1.258-5.189,3.772-5.145L401.132,334.507z"/>
</g>
<path style="fill:#E5D8C6;" d="M380.211,86.329V3.812l99.267,99.267H396.96C387.71,103.079,380.211,95.58,380.211,86.329z"/>
<g>
	<path style="fill:#FFFFFF;" d="M428.69,127.932H83.31c-4.278,0-7.747,3.468-7.747,7.747s3.468,7.747,7.747,7.747h345.38
		c4.278,0,7.747-3.468,7.747-7.747C436.437,131.4,432.968,127.932,428.69,127.932z"/>
	<path style="fill:#FFFFFF;" d="M83.31,90.403h246.025c4.278,0,7.747-3.468,7.747-7.747s-3.468-7.747-7.747-7.747H83.31
		c-4.278,0-7.747,3.468-7.747,7.747C75.563,86.935,79.032,90.403,83.31,90.403z"/>
</g>
<g>
</g>
<g>
</g>
<g>
</g>
<g>
</g>
<g>
</g>
<g>
</g>
<g>
</g>
<g>
</g>
<g>
</g>
<g>
</g>
<g>
</g>
<g>
</g>
<g>
</g>
<g>
</g>
<g>
</g>
</svg>
