<?xml version="1.0" encoding="iso-8859-1"?>
<!-- Generator: Adobe Illustrator 19.0.0, SVG Export Plug-In . SVG Version: 6.00 Build 0)  -->
<svg version="1.1" id="Capa_1" xmlns="http://www.w3.org/2000/svg" xmlns:xlink="http://www.w3.org/1999/xlink" x="0px" y="0px"
	 viewBox="0 0 512 512" style="enable-background:new 0 0 512 512;" xml:space="preserve">
<path style="fill:#1E9682;" d="M1.814,225.517C16.887,98.504,124.932,0,256,0c141.385,0,256,114.615,256,256
	c0,18.885-2.063,37.285-5.944,55.006c-118.2-56.903-231.591-123.4-339.008-198.875l0,0c-17.605-12.37-41.554-10.294-56.769,4.92
	L1.814,225.517z"/>
<path style="fill:#87DCFA;" d="M256,512C114.615,512,0,397.385,0,256c0-17.544,1.769-34.675,5.131-51.227L110.607,99.298
	c13.743-13.744,35.377-15.619,51.28-4.445l0,0c109.42,76.881,225.697,143.46,347.333,198.917C490.96,417.244,384.551,512,256,512z"
	/>
<path style="fill:#B4EBFF;" d="M509.221,293.77c-11.471,77.566-57.735,143.791-122.415,182.32
	C188.554,448.784,40,336.312,40,201.711c0-11.941,1.176-23.708,3.449-35.255l67.157-67.158c13.743-13.744,35.377-15.619,51.28-4.445
	l0,0C271.307,171.735,387.585,238.314,509.221,293.77z"/>
<path style="fill:#DC550A;" d="M496.02,82.009l-20.949,18.33c-3.212,2.812-6.415,5.633-9.615,8.456
	c0.004,0.006,0.009,0.012,0.013,0.018c-18.784,16.565-128.406,119.176-151.146,141.916L135.781,429.27l-29.86,34.126
	c-22.003-15.95-41.366-35.313-57.317-57.316l34.126-29.86l178.541-178.541c23.037-23.037,45.712-46.428,68.05-70.136
	c1.776-1.884,3.556-3.764,5.328-5.651c5.068-5.404,10.118-10.826,15.149-16.264c0.813-0.878,1.624-1.757,2.436-2.635
	c17.196-18.626,34.184-37.445,50.952-56.461c0.006,0.005,0.011,0.009,0.017,0.013c2.823-3.201,5.646-6.403,8.456-9.615l18.33-20.949
	c17.824-20.371,49.163-21.414,68.303-2.274C517.435,32.846,516.391,64.185,496.02,82.009z"/>
<path style="fill:#FF7D0A;" d="M487.405,183.976l-20.949,18.33c-9.579,8.382-19.095,16.835-28.573,25.33l0,0
	c-4.764,4.267-34.05,30.931-36.807,33.476c-32.392,29.891-64.198,60.413-95.369,91.583L163.601,494.802
	c-24.495-9.485-47.162-22.629-67.339-38.763l156.395-156.396c27.455-27.455,54.41-55.402,80.875-83.806
	c3.604-3.867,7.194-7.748,10.78-11.633c3.375-3.656,6.742-7.32,10.1-10.992c16.405-17.931,32.63-36.025,48.635-54.317l18.331-20.949
	c17.824-20.371,49.163-21.415,68.303-2.274S507.776,166.151,487.405,183.976z"/>
<path style="fill:#A03C19;" d="M182.646,334.666l-5.312-5.312c-5.858-5.858-5.858-15.355,0-21.213l93.73-93.73
	c5.858-5.858,15.355-5.858,21.213,0l5.312,5.312c5.858,5.858,5.858,15.355,0,21.213l-93.73,93.73
	C198.002,340.524,188.504,340.524,182.646,334.666z"/>
<path style="fill:#DC550A;" d="M174.031,436.633l-5.312-5.312c-5.858-5.858-5.858-15.355,0-21.213l93.73-93.73
	c5.858-5.858,15.355-5.858,21.213,0l5.312,5.312c5.858,5.858,5.858,15.355,0,21.213l-93.73,93.73
	C189.386,442.491,179.889,442.491,174.031,436.633z"/>
<path style="fill:#96E1BE;" d="M280,60c0,11.046-8.954,20-20,20c-11.046,0-20-8.954-20-20s8.954-20,20-20
	C271.046,40,280,48.954,280,60z M350,90c-5.523,0-10,4.478-10,10s4.477,10,10,10s10-4.478,10-10S355.523,90,350,90z M170,40
	c-5.523,0-10,4.478-10,10s4.477,10,10,10s10-4.478,10-10S175.523,40,170,40z M260,120c-5.523,0-10,4.478-10,10s4.477,10,10,10
	c5.523,0,10-4.478,10-10S265.523,120,260,120z M480,240c-5.523,0-10,4.478-10,10s4.477,10,10,10s10-4.478,10-10S485.523,240,480,240
	z"/>
<g>
</g>
<g>
</g>
<g>
</g>
<g>
</g>
<g>
</g>
<g>
</g>
<g>
</g>
<g>
</g>
<g>
</g>
<g>
</g>
<g>
</g>
<g>
</g>
<g>
</g>
<g>
</g>
<g>
</g>
</svg>
