<svg height="511pt" viewBox="-97 1 511 511.99896" width="511pt" xmlns="http://www.w3.org/2000/svg"><path d="m253.4375 423.171875-93.382812 79.574219-61.648438-51.1875-.296875-.246094-33.902344-28.140625 7.304688-32.65625 5.574219-24.960937 14.238281-63.683594 26.21875-117.269532 8.882812-39.6875 3.972657-17.804687 7.535156-33.679687h41.777344l7.535156 33.679687 24.320312 108.753906 2.664063 11.929688 13.199219 59.035156 2.777343 12.402344.097657.429687zm0 0" fill="#76ffd9"/><path d="m253.4375 423.171875-93.382812 79.574219-42.882813-35.605469-18.765625-15.582031-.296875-.246094 132.097656-132.082031.097657.429687 6.28125 28.078125zm0 0" fill="#ffc843"/><path d="m236.585938 347.738281-119.414063 119.402344-18.765625-15.582031-.296875-.246094 132.097656-132.082031.097657.429687zm0 0" fill="#ffb400"/><path d="m230.207031 319.230469-132.097656 132.082031-33.902344-28.140625 7.304688-32.65625 142.71875-142.722656zm0 0" fill="#fff"/><path d="m187.246094 127.105469h-56.84375l7.53125-33.679688h41.777344zm0 0" fill="#5de0bf"/><path d="m308.453125 9.25-67.953125 95.085938-13.824219-17.328126-61.992187-77.757812zm0 0" fill="#fff"/><path d="m237.773438 9.25c0 1.179688-.085938 2.375-.257813 3.550781l-10.839844 74.207031-61.992187-77.757812zm0 0" fill="#e1eaf8"/><path d="m152.960938 9.25-61.992188 77.757812-13.824219 17.328126-67.953125-95.085938zm0 0" fill="#fff"/><path d="m79.871094 9.25h73.089844l-61.992188 77.757812-10.839844-74.203124c-.171875-1.179688-.257812-2.375-.257812-3.554688zm0 0" fill="#e1eaf8"/><path d="m200.910156 93.429688h-84.175781l-12.289063-84.175782h108.753907zm0 0" fill="#c4c8f7"/><path d="m200.910156 93.429688h-84.175781l-12.289063-84.175782h108.753907zm0 0" fill="#76ffd9"/><path d="m316.277344 4.25c-1.34375-2.609375-4.03125-4.25-6.96875-4.25h-95.804688c-.007812 0-.019531 0-.03125 0h-109.304687c-.007813 0-.019531 0-.027344 0h-95.804687c-2.9375 0-5.625 1.640625-6.96875 4.25-1.3437505 2.613281-1.113282 5.753906.59375 8.144531l68.34375 95.628907c1.429687 2 3.714843 3.214843 6.167968 3.277343.070313 0 .140625.003907.207032.003907 2.382812 0 4.640624-1.085938 6.128906-2.953126l23.730468-29.773437 2.199219 15.050781c.5625 3.851563 3.863281 6.707032 7.753907 6.707032h11.535156l-72.011719 322.082031c-.644531 2.875.378906 5.863281 2.640625 7.742187l96.394531 80.03125c1.453125 1.207032 3.230469 1.808594 5.007813 1.808594 1.808594 0 3.617187-.625 5.082031-1.875l93.921875-80.03125c2.214844-1.886719 3.203125-4.839844 2.566406-7.675781l-51.371094-229.769531c-.945312-4.222657-5.136718-6.878907-9.359374-5.9375-4.222657.941406-6.882813 5.132812-5.9375 9.355468l50.34375 225.164063-85.3125 72.695312-87.636719-72.761719 71.734375-320.828124h6.492187v12.886718c0 4.328125 3.507813 7.835938 7.835938 7.835938s7.839843-3.507813 7.839843-7.835938v-12.890625h7.296876l13.917968 62.246094c.945313 4.222656 5.132813 6.878906 9.355469 5.9375 4.222656-.945313 6.882813-5.136719 5.9375-9.359375l-13.152344-58.824219h11.539063c3.890625 0 7.191406-2.851562 7.753906-6.703125l2.195312-15.050781 23.734376 29.773437c1.492187 1.867188 3.746093 2.949219 6.128906 2.949219h.203125c2.457031-.066406 4.742187-1.277343 6.171875-3.277343l29.109375-40.722657c2.515625-3.523437 1.703125-8.417969-1.816407-10.933593-3.523437-2.515626-8.417968-1.703126-10.933593 1.816406l-23.078125 32.28125-26.417969-33.140625 6.082031-41.652344h73.792969l-10.75 15.042969c-2.515625 3.523437-1.703125 8.417968 1.820313 10.933594 1.378906.984374 2.972656 1.460937 4.550781 1.460937 2.441406 0 4.851562-1.140625 6.378906-3.28125l19.605469-27.4375c1.707031-2.386719 1.9375-5.527344.59375-8.140625zm-239.253906 86.214844-53.453126-74.792969h73.789063l6.078125 41.652344zm117.351562-5.804688h-14.4375c-.035156 0-.070312-.003906-.105469-.003906h-42.019531c-.035156 0-.070312.003906-.105469.003906h-14.4375l-2.367187-16.214844h75.839844zm4.65625-31.886718h-80.417969l-5.414062-37.097657h91.246093zm0 0" fill="#434c54"/></svg>