<?xml version="1.0" encoding="iso-8859-1"?>
<!-- Generator: Adobe Illustrator 19.0.0, SVG Export Plug-In . SVG Version: 6.00 Build 0)  -->
<svg version="1.1" id="Capa_1" xmlns="http://www.w3.org/2000/svg" xmlns:xlink="http://www.w3.org/1999/xlink" x="0px" y="0px"
	 viewBox="0 0 496 496" style="enable-background:new 0 0 496 496;" xml:space="preserve">
<circle style="fill:#FFCB57;" cx="96" cy="192" r="88"/>
<polygon style="fill:#E56565;" points="496,280 440,280 440,264 480,264 480,64 256,64 256,144 240,144 240,48 496,48 "/>
<path style="fill:#FFCB57;" d="M336,189.92c-14.496-10.12-24-26.896-24-45.92c0-30.928,25.072-56,56-56s56,25.072,56,56
	c0,19.024-9.504,35.8-24,45.92V240h-64V189.92z"/>
<g>
	<path style="fill:#3F3A34;" d="M96,64h128V48H96v-8c0-13.232,10.768-24,24-24h168c8.824,0,16,7.176,16,16h16
		c0-17.648-14.352-32-32-32H120C97.944,0,80,17.944,80,40v40h16V64z"/>
	<path style="fill:#3F3A34;" d="M96,384v-24h32v-16H80v40c0,22.056,17.944,40,40,40h24v-16h-24C106.768,408,96,397.232,96,384z"/>
	<path style="fill:#3F3A34;" d="M147.632,206.28C155.496,199.544,160,189.752,160,179.4c0-19.52-15.88-35.4-35.4-35.4h-1.248
		c-9.456,0-18.344,3.68-25.032,10.36L96,156.688l-2.32-2.328C86.992,147.68,78.104,144,68.648,144H67.4
		C47.88,144,32,159.88,32,179.4c0,10.352,4.504,20.152,12.368,26.872L96,250.536L147.632,206.28z M48,179.4
		c0-10.696,8.704-19.4,19.4-19.4h1.248c5.176,0,10.056,2.016,13.72,5.68L96,179.312l13.632-13.632
		c3.664-3.664,8.536-5.68,13.72-5.68h1.248c10.696,0,19.4,8.704,19.4,19.4c0,5.672-2.472,11.04-6.776,14.728L96,229.464
		L54.776,194.12C50.472,190.44,48,185.072,48,179.4z"/>
	<path style="fill:#3F3A34;" d="M192,192c0-52.936-43.064-96-96-96S0,139.064,0,192s43.064,96,96,96S192,244.936,192,192z M16,192
		c0-44.112,35.888-80,80-80s80,35.888,80,80s-35.888,80-80,80S16,236.112,16,192z"/>
	<path style="fill:#3F3A34;" d="M408,193.92c15.104-12.12,24-30.48,24-49.92c0-35.288-28.712-64-64-64s-64,28.712-64,64
		c0,19.44,8.896,37.8,24,49.92V200h-16v16h16v32h80v-32h16v-16h-16V193.92z M340.576,183.36C327.696,174.36,320,159.648,320,144
		c0-26.472,21.528-48,48-48s48,21.528,48,48c0,15.648-7.696,30.36-20.576,39.36L392,185.752V200h-16v-33.472
		c9.288-3.312,16-12.112,16-22.528c0-13.232-10.768-24-24-24s-24,10.768-24,24c0,10.416,6.712,19.216,16,22.528V200h-16v-14.248
		L340.576,183.36z M360,144c0-4.408,3.584-8,8-8s8,3.592,8,8s-3.584,8-8,8S360,148.408,360,144z M392,232h-48v-16h48V232z"/>
	<path style="fill:#3F3A34;" d="M392,264c-9.608,0-18.128,4.336-24,11.056c-5.872-6.72-14.392-11.056-24-11.056
		s-18.128,4.336-24,11.056c-5.872-6.72-14.392-11.056-24-11.056c-5.856,0-11.272,1.696-16,4.448V192c0-17.648-14.352-32-32-32
		s-32,14.352-32,32v163.272c0,1.216-0.48,2.368-1.352,3.216c-0.864,0.848-1.632,1.176-3.24,1.296c-2-0.032-3.72-1.352-4.264-3.28
		l-10.952-38.784C192.576,304.928,180.776,296,167.48,296h-1.64c-16.456,0-29.84,13.384-29.84,29.832
		c0,1.968,0.192,3.936,0.576,5.848l10.312,51.568c3.76,18.752,13.968,35.864,28.744,48.184L200,451.752V496h192v-9.376
		c0-12.272,4.976-24.288,13.656-32.968C417.312,442,424,425.856,424,409.376V296C424,278.352,409.648,264,392,264z M408,409.376
		c0,12.272-4.976,24.288-13.656,32.968c-10.088,10.088-16.456,23.528-17.984,37.656H216v-35.752l-30.12-25.104
		c-11.984-9.984-20.264-23.848-23.304-39.032l-10.312-51.568c-0.176-0.888-0.264-1.792-0.264-2.712C152,318.2,158.2,312,165.832,312
		h1.64c6.168,0,11.64,4.144,13.32,10.072l10.952,38.784c2.48,8.784,10.264,14.784,19.392,14.936c5.392-0.008,10.776-2,14.728-5.888
		c3.96-3.888,6.136-9.08,6.136-14.632V192c0-8.824,7.176-16,16-16s16,7.176,16,16v104v16v16h16v-16v-16c0-8.824,7.176-16,16-16
		s16,7.176,16,16v32h16v-32c0-8.824,7.176-16,16-16s16,7.176,16,16v16v16h16v-16v-16c0-8.824,7.176-16,16-16s16,7.176,16,16V409.376
		z"/>
	<rect x="80" y="304" style="fill:#3F3A34;" width="16" height="24"/>
</g>
<g>
</g>
<g>
</g>
<g>
</g>
<g>
</g>
<g>
</g>
<g>
</g>
<g>
</g>
<g>
</g>
<g>
</g>
<g>
</g>
<g>
</g>
<g>
</g>
<g>
</g>
<g>
</g>
<g>
</g>
</svg>
